<svg id="visual" viewBox="0 0 900 600" width="900" height="600" xmlns="http://www.w3.org/2000/svg" xmlns:xlink="http://www.w3.org/1999/xlink" version="1.1"><rect x="0" y="0" width="900" height="600" fill="#001220"></rect><defs><linearGradient id="grad1_0" x1="33.3%" y1="0%" x2="100%" y2="100%"><stop offset="20%" stop-color="#fbae3c" stop-opacity="1"></stop><stop offset="80%" stop-color="#fbae3c" stop-opacity="1"></stop></linearGradient></defs><defs><linearGradient id="grad1_1" x1="33.3%" y1="0%" x2="100%" y2="100%"><stop offset="20%" stop-color="#fbae3c" stop-opacity="1"></stop><stop offset="80%" stop-color="#f48350" stop-opacity="1"></stop></linearGradient></defs><defs><linearGradient id="grad1_2" x1="33.3%" y1="0%" x2="100%" y2="100%"><stop offset="20%" stop-color="#d96162" stop-opacity="1"></stop><stop offset="80%" stop-color="#f48350" stop-opacity="1"></stop></linearGradient></defs><defs><linearGradient id="grad1_3" x1="33.3%" y1="0%" x2="100%" y2="100%"><stop offset="20%" stop-color="#d96162" stop-opacity="1"></stop><stop offset="80%" stop-color="#af4b6d" stop-opacity="1"></stop></linearGradient></defs><defs><linearGradient id="grad1_4" x1="33.3%" y1="0%" x2="100%" y2="100%"><stop offset="20%" stop-color="#7c3e6b" stop-opacity="1"></stop><stop offset="80%" stop-color="#af4b6d" stop-opacity="1"></stop></linearGradient></defs><defs><linearGradient id="grad1_5" x1="33.3%" y1="0%" x2="100%" y2="100%"><stop offset="20%" stop-color="#7c3e6b" stop-opacity="1"></stop><stop offset="80%" stop-color="#49335c" stop-opacity="1"></stop></linearGradient></defs><defs><linearGradient id="grad1_6" x1="33.3%" y1="0%" x2="100%" y2="100%"><stop offset="20%" stop-color="#1d2540" stop-opacity="1"></stop><stop offset="80%" stop-color="#49335c" stop-opacity="1"></stop></linearGradient></defs><defs><linearGradient id="grad1_7" x1="33.3%" y1="0%" x2="100%" y2="100%"><stop offset="20%" stop-color="#1d2540" stop-opacity="1"></stop><stop offset="80%" stop-color="#001220" stop-opacity="1"></stop></linearGradient></defs><defs><linearGradient id="grad2_0" x1="0%" y1="0%" x2="66.7%" y2="100%"><stop offset="20%" stop-color="#fbae3c" stop-opacity="1"></stop><stop offset="80%" stop-color="#fbae3c" stop-opacity="1"></stop></linearGradient></defs><defs><linearGradient id="grad2_1" x1="0%" y1="0%" x2="66.7%" y2="100%"><stop offset="20%" stop-color="#f48350" stop-opacity="1"></stop><stop offset="80%" stop-color="#fbae3c" stop-opacity="1"></stop></linearGradient></defs><defs><linearGradient id="grad2_2" x1="0%" y1="0%" x2="66.7%" y2="100%"><stop offset="20%" stop-color="#f48350" stop-opacity="1"></stop><stop offset="80%" stop-color="#d96162" stop-opacity="1"></stop></linearGradient></defs><defs><linearGradient id="grad2_3" x1="0%" y1="0%" x2="66.7%" y2="100%"><stop offset="20%" stop-color="#af4b6d" stop-opacity="1"></stop><stop offset="80%" stop-color="#d96162" stop-opacity="1"></stop></linearGradient></defs><defs><linearGradient id="grad2_4" x1="0%" y1="0%" x2="66.7%" y2="100%"><stop offset="20%" stop-color="#af4b6d" stop-opacity="1"></stop><stop offset="80%" stop-color="#7c3e6b" stop-opacity="1"></stop></linearGradient></defs><defs><linearGradient id="grad2_5" x1="0%" y1="0%" x2="66.7%" y2="100%"><stop offset="20%" stop-color="#49335c" stop-opacity="1"></stop><stop offset="80%" stop-color="#7c3e6b" stop-opacity="1"></stop></linearGradient></defs><defs><linearGradient id="grad2_6" x1="0%" y1="0%" x2="66.7%" y2="100%"><stop offset="20%" stop-color="#49335c" stop-opacity="1"></stop><stop offset="80%" stop-color="#1d2540" stop-opacity="1"></stop></linearGradient></defs><defs><linearGradient id="grad2_7" x1="0%" y1="0%" x2="66.7%" y2="100%"><stop offset="20%" stop-color="#001220" stop-opacity="1"></stop><stop offset="80%" stop-color="#1d2540" stop-opacity="1"></stop></linearGradient></defs><g transform="translate(900, 0)"><path d="M0 378.6C-28.3 363.5 -56.6 348.5 -73.9 323.7C-91.2 298.8 -97.4 264.2 -128 265.8C-158.5 267.3 -213.4 305.1 -236 296C-258.7 286.9 -249.2 231 -242.4 193.3C-235.5 155.6 -231.4 136.1 -253.2 121.9C-275 107.7 -322.8 98.9 -348 79.4C-373.3 60 -375.9 30 -378.6 0L0 0Z" fill="#0c1c30"></path><path d="M0 331.3C-24.8 318.1 -49.5 304.9 -64.6 283.2C-79.8 261.5 -85.3 231.2 -112 232.6C-138.7 233.9 -186.7 266.9 -206.5 259C-226.4 251 -218.1 202.1 -212.1 169.1C-206.1 136.1 -202.4 119.1 -221.5 106.7C-240.6 94.3 -282.5 86.5 -304.5 69.5C-326.6 52.5 -328.9 26.3 -331.3 0L0 0Z" fill="#312c4f"></path><path d="M0 283.9C-21.2 272.7 -42.4 261.4 -55.4 242.8C-68.4 224.1 -73.1 198.2 -96 199.3C-118.9 200.5 -160 228.8 -177 222C-194 215.2 -186.9 173.2 -181.8 145C-176.6 116.7 -173.5 102.1 -189.9 91.4C-206.2 80.8 -242.1 74.2 -261 59.6C-280 45 -282 22.5 -283.9 0L0 0Z" fill="#623965"></path><path d="M0 236.6C-17.7 227.2 -35.4 217.8 -46.2 202.3C-57 186.8 -60.9 165.1 -80 166.1C-99.1 167.1 -133.4 190.7 -147.5 185C-161.7 179.3 -155.8 144.4 -151.5 120.8C-147.2 97.2 -144.6 85.1 -158.2 76.2C-171.9 67.3 -201.8 61.8 -217.5 49.6C-233.3 37.5 -235 18.8 -236.6 0L0 0Z" fill="#96446e"></path><path d="M0 189.3C-14.1 181.8 -28.3 174.3 -36.9 161.8C-45.6 149.4 -48.7 132.1 -64 132.9C-79.3 133.7 -106.7 152.5 -118 148C-129.4 143.4 -124.6 115.5 -121.2 96.6C-117.8 77.8 -115.7 68 -126.6 61C-137.5 53.9 -161.4 49.4 -174 39.7C-186.6 30 -188 15 -189.3 0L0 0Z" fill="#c55469"></path><path d="M0 142C-10.6 136.3 -21.2 130.7 -27.7 121.4C-34.2 112.1 -36.5 99.1 -48 99.7C-59.5 100.3 -80 114.4 -88.5 111C-97 107.6 -93.5 86.6 -90.9 72.5C-88.3 58.3 -86.8 51 -94.9 45.7C-103.1 40.4 -121.1 37.1 -130.5 29.8C-140 22.5 -141 11.3 -142 0L0 0Z" fill="#e9705a"></path><path d="M0 94.6C-7.1 90.9 -14.1 87.1 -18.5 80.9C-22.8 74.7 -24.4 66.1 -32 66.4C-39.6 66.8 -53.3 76.3 -59 74C-64.7 71.7 -62.3 57.7 -60.6 48.3C-58.9 38.9 -57.8 34 -63.3 30.5C-68.7 26.9 -80.7 24.7 -87 19.9C-93.3 15 -94 7.5 -94.6 0L0 0Z" fill="#fa9845"></path><path d="M0 47.3C-3.5 45.4 -7.1 43.6 -9.2 40.5C-11.4 37.4 -12.2 33 -16 33.2C-19.8 33.4 -26.7 38.1 -29.5 37C-32.3 35.9 -31.2 28.9 -30.3 24.2C-29.4 19.4 -28.9 17 -31.6 15.2C-34.4 13.5 -40.4 12.4 -43.5 9.9C-46.7 7.5 -47 3.8 -47.3 0L0 0Z" fill="#fbae3c"></path></g><g transform="translate(0, 600)"><path d="M0 -378.6C29.2 -380.5 58.4 -382.5 84.2 -369.1C110.1 -355.7 132.5 -327 141 -292.8C149.6 -258.6 144.3 -218.9 165.8 -208C187.4 -197 235.8 -214.8 260.3 -207.6C284.9 -200.4 285.5 -168.2 299.1 -144C312.8 -119.9 339.5 -103.7 354.9 -81C370.3 -58.3 374.4 -29.2 378.6 0L0 0Z" fill="#0c1c30"></path><path d="M0 -331.3C25.6 -333 51.1 -334.7 73.7 -323C96.3 -311.2 115.9 -286.1 123.4 -256.2C130.9 -226.3 126.2 -191.6 145.1 -182C164 -172.4 206.4 -188 227.8 -181.7C249.3 -175.4 249.8 -147.2 261.7 -126C273.7 -104.9 297 -90.7 310.5 -70.9C324 -51 327.6 -25.5 331.3 0L0 0Z" fill="#312c4f"></path><path d="M0 -283.9C21.9 -285.4 43.8 -286.9 63.2 -276.8C82.5 -266.8 99.3 -245.3 105.8 -219.6C112.2 -194 108.2 -164.2 124.4 -156C140.6 -147.8 176.9 -161.1 195.3 -155.7C213.6 -150.3 214.1 -126.2 224.3 -108C234.6 -89.9 254.6 -77.8 266.2 -60.7C277.7 -43.7 280.8 -21.9 283.9 0L0 0Z" fill="#623965"></path><path d="M0 -236.6C18.3 -237.8 36.5 -239 52.7 -230.7C68.8 -222.3 82.8 -204.4 88.1 -183C93.5 -161.6 90.2 -136.8 103.7 -130C117.1 -123.1 147.4 -134.3 162.7 -129.8C178 -125.3 178.4 -105.1 187 -90C195.5 -74.9 212.2 -64.8 221.8 -50.6C231.4 -36.5 234 -18.2 236.6 0L0 0Z" fill="#96446e"></path><path d="M0 -189.3C14.6 -190.3 29.2 -191.2 42.1 -184.5C55 -177.9 66.2 -163.5 70.5 -146.4C74.8 -129.3 72.1 -109.5 82.9 -104C93.7 -98.5 117.9 -107.4 130.2 -103.8C142.4 -100.2 142.7 -84.1 149.6 -72C156.4 -59.9 169.7 -51.8 177.4 -40.5C185.1 -29.2 187.2 -14.6 189.3 0L0 0Z" fill="#c55469"></path><path d="M0 -142C11 -142.7 21.9 -143.4 31.6 -138.4C41.3 -133.4 49.7 -122.6 52.9 -109.8C56.1 -97 54.1 -82.1 62.2 -78C70.3 -73.9 88.4 -80.6 97.6 -77.9C106.8 -75.2 107.1 -63.1 112.2 -54C117.3 -44.9 127.3 -38.9 133.1 -30.4C138.9 -21.9 140.4 -10.9 142 0L0 0Z" fill="#e9705a"></path><path d="M0 -94.6C7.3 -95.1 14.6 -95.6 21.1 -92.3C27.5 -88.9 33.1 -81.8 35.3 -73.2C37.4 -64.7 36.1 -54.7 41.5 -52C46.9 -49.3 59 -53.7 65.1 -51.9C71.2 -50.1 71.4 -42.1 74.8 -36C78.2 -30 84.9 -25.9 88.7 -20.2C92.6 -14.6 93.6 -7.3 94.6 0L0 0Z" fill="#fa9845"></path><path d="M0 -47.3C3.7 -47.6 7.3 -47.8 10.5 -46.1C13.8 -44.5 16.6 -40.9 17.6 -36.6C18.7 -32.3 18 -27.4 20.7 -26C23.4 -24.6 29.5 -26.9 32.5 -26C35.6 -25.1 35.7 -21 37.4 -18C39.1 -15 42.4 -13 44.4 -10.1C46.3 -7.3 46.8 -3.6 47.3 0L0 0Z" fill="#fbae3c"></path></g></svg>